<svg width="325" height="338" viewBox="0 0 325 338" fill="none" xmlns="http://www.w3.org/2000/svg">
<path d="M301 36H32V233.363L6 254.645L32.226 286.685L66 259.04L57.7817 249H301V36Z" fill="#63A4FF"/>
<path d="M292.5 10H32.5C14.625 10 0 24.76 0 42.8V338L65 272.4H292.5C310.375 272.4 325 257.64 325 239.6V42.8C325 24.76 310.375 10 292.5 10ZM292.5 239.6H65L32.5 272.4V42.8H292.5V239.6Z" fill="white"/>
<path d="M88.62 62H159C176.173 62 191.43 65.3733 204.77 72.12C218.11 78.7133 228.46 88.1433 235.82 100.41C243.18 112.523 246.86 126.553 246.86 142.5C246.86 158.447 243.18 172.553 235.82 184.82C228.46 196.933 218.11 206.363 204.77 213.11C191.43 219.703 176.173 223 159 223H88.62V62ZM157.62 197.7C169.427 197.7 179.777 195.477 188.67 191.03C197.717 186.43 204.617 179.99 209.37 171.71C214.277 163.277 216.73 153.54 216.73 142.5C216.73 131.46 214.277 121.8 209.37 113.52C204.617 105.087 197.717 98.6467 188.67 94.2C179.777 89.6 169.427 87.3 157.62 87.3H118.52V197.7H157.62Z" fill="white"/>
</svg>
